<svg xmlns="http://www.w3.org/2000/svg" viewBox="0 0 207.75 326.25" fill="#6C062D">
<path d="M172.68 301.4L164.7 301.4L164.7 148.73L101.92 178.41L39.14 148.73L39.14 301.4L31.17 301.4L31.17 136.14L101.92 169.59L172.68 136.14Z"/>
<path d="M154.82 303.23L146.85 303.23L146.85 177.96L101.96 201.84L57.07 177.96L57.07 303.23L49.11 303.23L49.11 164.7L101.96 192.81L154.82 164.7Z"/>
<path d="M136.62 311.46L128.64 311.46L128.64 215.54L101.89 233.19L75.14 215.54L75.14 311.46L67.16 311.46L67.16 200.73L101.89 223.64L136.62 200.73Z"/>
<rect x="97.9" y="11.6" width="7.98" height="151.2"/>
<rect x="120.2" y="49.5" width="7.97" height="101.4"/>
<rect x="75.6" y="49.5" width="7.97" height="101.4"/>
<rect x="142.3" y="82.1" width="7.98" height="59.55"/>
<rect x="53.5" y="82.1" width="7.98" height="59.55"/>
<rect x="77.7" y="255.7" width="48.55" height="7.98"/>
</svg>
