<svg xmlns="http://www.w3.org/2000/svg" xmlns:xlink="http://www.w3.org/1999/xlink" width="277" zoomAndPan="magnify" viewBox="0 0 207.75 326.250004" height="435" preserveAspectRatio="xMidYMid meet" version="1.0"><defs><clipPath id="3f7224497f"><path d="M 0.113281 0 L 207.386719 0 L 207.386719 325.5 L 0.113281 325.5 Z M 0.113281 0 " clip-rule="nonzero"/></clipPath><clipPath id="a58d618356"><path d="M 0.113281 0 L 207.136719 0 L 207.136719 325.109375 L 0.113281 325.109375 Z M 0.113281 0 " clip-rule="nonzero"/></clipPath><clipPath id="c99d8d31cc"><path d="M 0.113281 0 L 207.386719 0 L 207.386719 325 L 0.113281 325 Z M 0.113281 0 " clip-rule="nonzero"/></clipPath><clipPath id="3bffe4ea72"><path d="M 31.171875 136.140625 L 172.914062 136.140625 L 172.914062 301.546875 L 31.171875 301.546875 Z M 31.171875 136.140625 " clip-rule="nonzero"/></clipPath><clipPath id="9c20ee1688"><path d="M 172.675781 301.402344 L 164.703125 301.402344 L 164.703125 148.726562 L 101.921875 178.40625 L 39.140625 148.726562 L 39.140625 301.402344 L 31.171875 301.402344 L 31.171875 136.140625 L 101.921875 169.59375 L 172.675781 136.140625 Z M 172.675781 301.402344 " clip-rule="nonzero"/></clipPath><clipPath id="d2d8ef5cf5"><path d="M 0.171875 0.140625 L 141.757812 0.140625 L 141.757812 165.46875 L 0.171875 165.46875 Z M 0.171875 0.140625 " clip-rule="nonzero"/></clipPath><clipPath id="f3f3001292"><path d="M 141.675781 165.402344 L 133.703125 165.402344 L 133.703125 12.726562 L 70.921875 42.40625 L 8.140625 12.726562 L 8.140625 165.402344 L 0.171875 165.402344 L 0.171875 0.140625 L 70.921875 33.59375 L 141.675781 0.140625 Z M 141.675781 165.402344 " clip-rule="nonzero"/></clipPath><clipPath id="7ed7f94b32"><rect x="0" width="142" y="0" height="166"/></clipPath><clipPath id="23db1c4669"><path d="M 49 164.699219 L 154.914062 164.699219 L 154.914062 303.46875 L 49 303.46875 Z M 49 164.699219 " clip-rule="nonzero"/></clipPath><clipPath id="a69323917a"><path d="M 154.816406 303.226562 L 146.851562 303.226562 L 146.851562 177.957031 L 101.960938 201.835938 L 57.074219 177.957031 L 57.074219 303.226562 L 49.105469 303.226562 L 49.105469 164.699219 L 101.960938 192.8125 L 154.816406 164.699219 Z M 154.816406 303.226562 " clip-rule="nonzero"/></clipPath><clipPath id="f10c32f589"><path d="M 0 0.699219 L 105.914062 0.699219 L 105.914062 139.382812 L 0 139.382812 Z M 0 0.699219 " clip-rule="nonzero"/></clipPath><clipPath id="9a9d6edfd8"><path d="M 105.816406 139.226562 L 97.851562 139.226562 L 97.851562 13.957031 L 52.960938 37.835938 L 8.074219 13.957031 L 8.074219 139.226562 L 0.105469 139.226562 L 0.105469 0.699219 L 52.960938 28.8125 L 105.816406 0.699219 Z M 105.816406 139.226562 " clip-rule="nonzero"/></clipPath><clipPath id="1d7330c955"><rect x="0" width="106" y="0" height="140"/></clipPath><clipPath id="24536f2bec"><path d="M 67.164062 200.726562 L 136.617188 200.726562 L 136.617188 311.46875 L 67.164062 311.46875 Z M 67.164062 200.726562 " clip-rule="nonzero"/></clipPath><clipPath id="cf47e5d5ed"><path d="M 136.617188 311.457031 L 128.644531 311.457031 L 128.644531 215.535156 L 101.890625 233.1875 L 75.136719 215.535156 L 75.136719 311.457031 L 67.164062 311.457031 L 67.164062 200.726562 L 101.890625 223.636719 L 136.617188 200.726562 Z M 136.617188 311.457031 " clip-rule="nonzero"/></clipPath><clipPath id="f2f7e9e83c"><path d="M 0.164062 0.726562 L 69.617188 0.726562 L 69.617188 111.46875 L 0.164062 111.46875 Z M 0.164062 0.726562 " clip-rule="nonzero"/></clipPath><clipPath id="34d7c2521e"><path d="M 69.617188 111.457031 L 61.644531 111.457031 L 61.644531 15.535156 L 34.890625 33.1875 L 8.136719 15.535156 L 8.136719 111.457031 L 0.164062 111.457031 L 0.164062 0.726562 L 34.890625 23.636719 L 69.617188 0.726562 Z M 69.617188 111.457031 " clip-rule="nonzero"/></clipPath><clipPath id="600f4d2969"><rect x="0" width="70" y="0" height="112"/></clipPath><clipPath id="5875215fa4"><path d="M 97.894531 11.644531 L 105.871094 11.644531 L 105.871094 162.796875 L 97.894531 162.796875 Z M 97.894531 11.644531 " clip-rule="nonzero"/></clipPath><clipPath id="ce144df097"><path d="M 0.894531 0.644531 L 8.871094 0.644531 L 8.871094 151.796875 L 0.894531 151.796875 Z M 0.894531 0.644531 " clip-rule="nonzero"/></clipPath><clipPath id="88406b15f1"><rect x="0" width="9" y="0" height="152"/></clipPath><clipPath id="77d09b7ba6"><path d="M 120.191406 49.457031 L 128.160156 49.457031 L 128.160156 150.863281 L 120.191406 150.863281 Z M 120.191406 49.457031 " clip-rule="nonzero"/></clipPath><clipPath id="f44b1ba592"><path d="M 0.191406 0.457031 L 8.160156 0.457031 L 8.160156 101.863281 L 0.191406 101.863281 Z M 0.191406 0.457031 " clip-rule="nonzero"/></clipPath><clipPath id="3f42caf412"><rect x="0" width="9" y="0" height="102"/></clipPath><clipPath id="983dc95ba4"><path d="M 75.605469 49.457031 L 83.578125 49.457031 L 83.578125 150.863281 L 75.605469 150.863281 Z M 75.605469 49.457031 " clip-rule="nonzero"/></clipPath><clipPath id="d2c6a26e0e"><path d="M 0.605469 0.457031 L 8.578125 0.457031 L 8.578125 101.863281 L 0.605469 101.863281 Z M 0.605469 0.457031 " clip-rule="nonzero"/></clipPath><clipPath id="e917916a0d"><rect x="0" width="9" y="0" height="102"/></clipPath><clipPath id="d4b96da39c"><path d="M 142.316406 82.128906 L 150.296875 82.128906 L 150.296875 141.679688 L 142.316406 141.679688 Z M 142.316406 82.128906 " clip-rule="nonzero"/></clipPath><clipPath id="94cc0bff05"><path d="M 0.316406 0.128906 L 8.296875 0.128906 L 8.296875 59.679688 L 0.316406 59.679688 Z M 0.316406 0.128906 " clip-rule="nonzero"/></clipPath><clipPath id="6d8178ceec"><rect x="0" width="9" y="0" height="60"/></clipPath><clipPath id="70fa53d6b2"><path d="M 53.480469 82.128906 L 61.464844 82.128906 L 61.464844 141.679688 L 53.480469 141.679688 Z M 53.480469 82.128906 " clip-rule="nonzero"/></clipPath><clipPath id="f8417f5fa6"><path d="M 0.480469 0.128906 L 8.464844 0.128906 L 8.464844 59.679688 L 0.480469 59.679688 Z M 0.480469 0.128906 " clip-rule="nonzero"/></clipPath><clipPath id="b93f2c69e4"><rect x="0" width="9" y="0" height="60"/></clipPath><clipPath id="c32c5fa565"><path d="M 77.6875 255.722656 L 126.238281 255.722656 L 126.238281 263.699219 L 77.6875 263.699219 Z M 77.6875 255.722656 " clip-rule="nonzero"/></clipPath><clipPath id="f2558bb23f"><path d="M 0.6875 0.722656 L 49.238281 0.722656 L 49.238281 8.699219 L 0.6875 8.699219 Z M 0.6875 0.722656 " clip-rule="nonzero"/></clipPath><clipPath id="dcd45f6952"><rect x="0" width="50" y="0" height="9"/></clipPath><clipPath id="8859f1f3b2"><rect x="0" width="208" y="0" height="326"/></clipPath></defs><g clip-path="url(#3f7224497f)"><path fill="#ffffff" d="M 0.113281 0 L 207.386719 0 L 207.386719 325.5 L 0.113281 325.5 Z M 0.113281 0 " fill-opacity="1" fill-rule="nonzero"/><g transform="matrix(1, 0, 0, 1, 0.000000000000000014, -0.000000000000027422)"><g clip-path="url(#8859f1f3b2)"><g clip-path="url(#a58d618356)"><path fill="#ffffff" d="M 0.113281 0 L 207.136719 0 L 207.136719 325.109375 L 0.113281 325.109375 Z M 0.113281 0 " fill-opacity="1" fill-rule="nonzero"/></g><g clip-path="url(#c99d8d31cc)"><path stroke-linecap="butt" transform="matrix(0.997484, 0, 0, 0.995408, 0.082538, -0.0663992)" fill="none" stroke-linejoin="miter" d="M -0.000507986 -0.00000711279 L 207.572492 -0.00000711279 L 207.572492 325.83202 L -0.000507986 325.83202 Z M -0.000507986 -0.00000711279 " stroke="#231f20" stroke-width="0.5" stroke-opacity="1" stroke-miterlimit="2.613"/></g><g clip-path="url(#3bffe4ea72)"><g clip-path="url(#9c20ee1688)"><g transform="matrix(1, 0, 0, 1, 31, 136)"><g clip-path="url(#7ed7f94b32)"><g clip-path="url(#d2d8ef5cf5)"><g clip-path="url(#f3f3001292)"><path fill="#6c062d" d="M 0.171875 0.140625 L 141.675781 0.140625 L 141.675781 165.308594 L 0.171875 165.308594 Z M 0.171875 0.140625 " fill-opacity="1" fill-rule="nonzero"/></g></g></g></g></g></g><g clip-path="url(#23db1c4669)"><g clip-path="url(#a69323917a)"><g transform="matrix(1, 0, 0, 1, 49, 164)"><g clip-path="url(#1d7330c955)"><g clip-path="url(#f10c32f589)"><g clip-path="url(#9a9d6edfd8)"><path fill="#6c062d" d="M 0.105469 0.699219 L 105.914062 0.699219 L 105.914062 139.226562 L 0.105469 139.226562 Z M 0.105469 0.699219 " fill-opacity="1" fill-rule="nonzero"/></g></g></g></g></g></g><g clip-path="url(#24536f2bec)"><g clip-path="url(#cf47e5d5ed)"><g transform="matrix(1, 0, 0, 1, 67, 200)"><g clip-path="url(#600f4d2969)"><g clip-path="url(#f2f7e9e83c)"><g clip-path="url(#34d7c2521e)"><path fill="#6c062d" d="M 0.164062 0.726562 L 69.617188 0.726562 L 69.617188 111.46875 L 0.164062 111.46875 Z M 0.164062 0.726562 " fill-opacity="1" fill-rule="nonzero"/></g></g></g></g></g></g><g clip-path="url(#5875215fa4)"><g transform="matrix(1, 0, 0, 1, 97, 11)"><g clip-path="url(#88406b15f1)"><g clip-path="url(#ce144df097)"><path fill="#6c062d" d="M 0.894531 0.644531 L 8.871094 0.644531 L 8.871094 151.800781 L 0.894531 151.800781 Z M 0.894531 0.644531 " fill-opacity="1" fill-rule="nonzero"/></g></g></g></g><g clip-path="url(#77d09b7ba6)"><g transform="matrix(1, 0, 0, 1, 120, 49)"><g clip-path="url(#3f42caf412)"><g clip-path="url(#f44b1ba592)"><path fill="#6c062d" d="M 0.191406 0.457031 L 8.160156 0.457031 L 8.160156 101.859375 L 0.191406 101.859375 Z M 0.191406 0.457031 " fill-opacity="1" fill-rule="nonzero"/></g></g></g></g><g clip-path="url(#983dc95ba4)"><g transform="matrix(1, 0, 0, 1, 75, 49)"><g clip-path="url(#e917916a0d)"><g clip-path="url(#d2c6a26e0e)"><path fill="#6c062d" d="M 0.605469 0.457031 L 8.578125 0.457031 L 8.578125 101.855469 L 0.605469 101.855469 Z M 0.605469 0.457031 " fill-opacity="1" fill-rule="nonzero"/></g></g></g></g><g clip-path="url(#d4b96da39c)"><g transform="matrix(1, 0, 0, 1, 142, 82)"><g clip-path="url(#6d8178ceec)"><g clip-path="url(#94cc0bff05)"><path fill="#6c062d" d="M 0.316406 0.128906 L 8.296875 0.128906 L 8.296875 59.691406 L 0.316406 59.691406 Z M 0.316406 0.128906 " fill-opacity="1" fill-rule="nonzero"/></g></g></g></g><g clip-path="url(#70fa53d6b2)"><g transform="matrix(1, 0, 0, 1, 53, 82)"><g clip-path="url(#b93f2c69e4)"><g clip-path="url(#f8417f5fa6)"><path fill="#6c062d" d="M 0.480469 0.128906 L 8.464844 0.128906 L 8.464844 59.671875 L 0.480469 59.671875 Z M 0.480469 0.128906 " fill-opacity="1" fill-rule="nonzero"/></g></g></g></g><g clip-path="url(#c32c5fa565)"><g transform="matrix(1, 0, 0, 1, 77, 255)"><g clip-path="url(#dcd45f6952)"><g clip-path="url(#f2558bb23f)"><path fill="#6c062d" d="M 0.6875 0.722656 L 49.230469 0.722656 L 49.230469 8.699219 L 0.6875 8.699219 Z M 0.6875 0.722656 " fill-opacity="1" fill-rule="nonzero"/></g></g></g></g></g></g></g></svg>